<?xml version="1.0" standalone="no"?>
<!DOCTYPE svg PUBLIC "-//W3C//DTD SVG 20010904//EN"
 "http://www.w3.org/TR/2001/REC-SVG-20010904/DTD/svg10.dtd">
<svg version="1.0" xmlns="http://www.w3.org/2000/svg"
 width="720.000000pt" height="720.000000pt" viewBox="0 0 720.000000 720.000000"
 preserveAspectRatio="xMidYMid meet">
<metadata>
Created by potrace 1.14, written by Peter Selinger 2001-2017
</metadata>
<g transform="translate(0.000000,720.000000) scale(0.100000,-0.100000)"
fill="#000000" stroke="none">
<path d="M3586 7003 c-3 -3 -6 -12 -6 -19 0 -7 -5 -25 -12 -41 -6 -15 -12 -32
-13 -38 -2 -5 -10 -32 -20 -60 -9 -27 -18 -57 -20 -65 -2 -8 -25 -78 -50 -155
-25 -77 -48 -147 -50 -155 -2 -8 -15 -46 -28 -85 -13 -38 -52 -158 -87 -265
-34 -107 -67 -208 -73 -225 -7 -16 -12 -32 -13 -35 -5 -28 -19 -67 -27 -77 -5
-7 -7 -13 -3 -13 3 0 0 -16 -8 -35 -9 -20 -15 -36 -14 -38 1 -1 -9 -33 -22
-72 -14 -38 -25 -72 -25 -75 -1 -3 -4 -12 -8 -20 -5 -12 -88 -274 -92 -290 -1
-3 -7 -18 -14 -35 -7 -16 -13 -38 -14 -47 -1 -10 -4 -18 -7 -18 -3 0 -7 -10
-7 -22 -1 -13 -7 -24 -13 -26 -5 -2 -8 -7 -5 -12 3 -5 -14 -66 -37 -137 -23
-70 -43 -130 -43 -133 -1 -3 -5 -14 -9 -25 -23 -59 -34 -91 -33 -95 1 -12 -87
-276 -94 -280 -4 -3 -621 -5 -1372 -5 -924 0 -1363 -3 -1361 -10 3 -5 21 -21
42 -35 20 -14 80 -56 132 -95 52 -38 106 -77 120 -86 14 -9 36 -26 49 -38 13
-11 28 -21 32 -21 4 0 14 -6 21 -12 20 -19 87 -69 134 -101 22 -15 50 -36 62
-48 12 -11 22 -16 22 -12 0 4 4 3 8 -2 8 -12 66 -56 137 -104 28 -19 51 -38
53 -43 2 -4 10 -8 18 -8 8 0 14 -4 14 -8 0 -4 20 -21 44 -36 24 -15 52 -35 63
-44 10 -9 47 -37 83 -62 36 -24 70 -48 75 -53 9 -8 563 -409 614 -445 13 -9
29 -23 36 -29 8 -7 18 -13 24 -13 5 0 14 -6 18 -13 4 -6 28 -26 53 -42 47 -32
52 -35 87 -63 11 -9 31 -24 43 -32 12 -8 67 -48 122 -88 100 -73 128 -82 142
-46 3 8 10 12 16 9 5 -3 10 -2 10 4 0 6 13 17 29 26 16 8 35 20 43 27 32 30
98 78 106 78 6 0 12 7 16 15 3 8 10 15 16 15 6 0 39 22 74 50 35 27 66 47 70
43 3 -3 6 -2 6 4 0 6 24 27 53 47 28 20 72 52 97 71 25 19 55 40 68 47 12 6
22 15 22 20 0 4 6 8 14 8 8 0 16 3 18 8 4 8 74 62 82 62 2 0 20 13 38 30 18
16 38 30 45 30 6 0 16 6 20 13 4 7 21 21 38 31 16 11 38 28 49 38 11 10 26 18
33 18 7 0 13 5 13 11 0 6 7 9 15 5 8 -3 14 -2 14 2 -3 18 2 33 9 28 5 -3 20 6
35 20 14 13 31 24 37 24 5 0 10 5 10 11 0 5 4 8 9 5 5 -3 12 1 15 10 4 9 13
14 22 10 9 -3 12 -2 9 5 -4 6 2 13 14 16 11 3 19 9 16 13 -6 9 34 26 50 21 5
-1 7 1 3 4 -4 4 12 21 35 38 23 17 44 34 45 39 2 4 10 8 18 8 8 0 14 5 14 10
0 6 6 10 14 10 8 0 16 6 19 13 3 8 10 7 26 -7 11 -11 21 -16 21 -11 0 4 8 1
18 -6 15 -13 16 -12 3 3 -7 10 -17 16 -21 13 -4 -3 -13 1 -19 9 -16 19 11 39
52 39 18 0 24 2 15 4 -10 3 -18 8 -18 13 0 9 30 24 43 22 4 -1 7 5 7 13 0 8 5
15 10 15 17 0 25 3 38 17 7 7 22 13 33 13 10 0 19 5 19 11 0 5 -5 7 -12 3 -7
-4 -8 -3 -4 5 4 6 11 9 16 6 5 -3 11 -1 15 5 3 5 13 10 22 10 11 0 9 -5 -8
-21 -13 -11 -18 -17 -10 -13 9 4 12 2 9 -7 -3 -8 -14 -13 -24 -12 -10 1 -13 0
-6 -3 6 -3 9 -11 5 -17 -3 -7 3 -4 14 6 26 22 32 22 26 -3 -3 -11 -8 -18 -12
-16 -4 3 -13 0 -21 -5 -11 -7 -9 -8 9 -6 14 2 27 10 29 18 8 23 27 29 34 11 6
-15 7 -15 7 -1 1 20 -24 43 -38 35 -5 -4 -12 -2 -15 3 -3 5 2 12 12 16 11 4
24 -2 39 -19 l22 -25 -2 31 c-3 40 23 59 55 39 18 -10 20 -11 11 0 -18 18 -16
30 2 23 8 -4 15 -1 15 6 0 6 -4 8 -10 5 -5 -3 -10 -2 -10 3 0 8 22 22 34 22 6
0 -1 -40 -7 -46 -10 -11 -8 -24 4 -24 5 0 7 5 4 10 -3 6 1 13 9 16 9 3 16 10
16 16 0 5 -5 6 -11 2 -7 -4 -10 -1 -7 7 3 8 -1 22 -10 32 -9 10 -11 17 -4 17
7 0 17 -9 24 -19 9 -15 15 -17 25 -9 9 7 17 7 28 -2 10 -9 15 -9 15 -1 0 6 -5
11 -11 11 -6 0 -9 7 -5 15 9 24 -4 48 -19 35 -7 -6 -17 -10 -21 -8 -18 5 -53
-23 -48 -37 4 -8 1 -15 -5 -15 -6 0 -11 7 -11 15 0 8 -4 15 -8 15 -5 0 -9 -7
-9 -15 0 -8 4 -15 8 -15 5 0 6 -6 3 -14 -6 -15 -35 -16 -47 -1 -5 6 -5 -1 -2
-13 6 -21 5 -23 -13 -13 -26 14 -43 14 -22 1 11 -7 11 -10 2 -10 -7 0 -10 -4
-7 -10 3 -5 -1 -10 -9 -10 -8 0 -18 4 -21 10 -3 6 1 10 9 10 9 0 15 6 14 12
-2 7 4 13 12 13 8 0 21 8 28 18 10 13 17 15 27 7 9 -8 12 -5 11 12 -1 17 5 23
19 23 11 1 19 7 17 14 -1 7 1 10 6 7 5 -3 24 8 42 24 18 16 37 27 41 24 5 -3
9 1 9 9 0 7 12 20 28 28 15 8 29 17 32 20 9 12 83 59 91 59 5 0 6 -7 3 -15 -9
-23 4 -18 17 6 7 13 7 19 1 15 -6 -3 -13 -2 -17 4 -3 5 -2 10 3 10 5 0 30 16
56 35 27 22 46 31 47 23 0 -7 5 -1 11 15 5 15 16 27 23 27 15 0 12 34 -4 54
-5 6 -9 14 -9 19 -1 4 -9 33 -18 65 -10 31 -17 60 -16 65 1 4 -2 7 -7 7 -5 0
-8 12 -8 26 0 15 -7 30 -14 35 -7 4 -10 11 -6 15 4 4 2 12 -3 19 -5 6 -11 20
-13 31 -2 10 -10 39 -19 64 -9 25 -33 97 -53 160 -19 63 -38 122 -42 130 -3 8
-7 20 -8 25 -2 6 -17 53 -35 105 -18 52 -33 99 -35 105 -1 5 -4 17 -7 25 -3 8
-16 49 -28 90 -12 41 -26 84 -31 95 -9 21 -40 113 -44 130 -1 6 -5 17 -8 25
-16 43 -47 141 -51 164 -2 14 -8 31 -13 38 -4 7 -8 18 -9 23 -1 6 -23 73 -49
150 -26 77 -47 146 -48 153 0 6 -4 12 -9 12 -5 0 -7 4 -4 8 3 5 -5 38 -18 73
-13 35 -24 67 -25 71 -1 4 -3 13 -6 20 -2 7 -27 85 -56 173 -28 88 -69 212
-90 276 -21 65 -39 124 -39 132 0 18 -14 30 -24 20z m84 -897 c0 -3 -4 -8 -10
-11 -5 -3 -10 -1 -10 4 0 6 5 11 10 11 6 0 10 -2 10 -4z m-120 -26 c0 -5 -5
-10 -11 -10 -5 0 -7 5 -4 10 3 6 8 10 11 10 2 0 4 -4 4 -10z m60 -390 c0 -5
-5 -10 -11 -10 -5 0 -7 5 -4 10 3 6 8 10 11 10 2 0 4 -4 4 -10z m-5 -50 c-3
-5 -12 -10 -18 -10 -7 0 -6 4 3 10 19 12 23 12 15 0z m21 -22 c4 -7 3 -8 -4
-4 -7 4 -12 0 -12 -10 0 -10 -3 -15 -6 -11 -7 6 2 37 10 37 3 0 8 -5 12 -12z
m-41 -39 c-4 -5 -12 -9 -18 -8 -9 0 -8 2 1 6 6 2 9 10 6 15 -4 7 -2 8 5 4 6
-4 9 -12 6 -17z m26 -31 c11 -21 11 -22 -4 -9 -10 7 -17 17 -17 22 0 15 9 10
21 -13z m-31 -3 c0 -2 -9 -3 -19 -2 -11 0 -18 5 -15 9 4 6 34 0 34 -7z m-25
-34 c-4 -14 2 -22 25 -32 32 -15 43 -33 13 -22 -16 6 -16 5 -4 -10 8 -10 11
-20 7 -24 -3 -3 -6 -1 -6 5 0 7 -3 11 -7 11 -20 -3 -24 2 -13 16 10 12 9 16
-4 21 -9 4 -21 15 -27 26 -8 15 -8 19 0 14 6 -4 11 -2 11 3 0 6 3 11 6 11 3 0
3 -9 -1 -19z m31 3 c-5 -12 -2 -15 9 -10 10 3 13 2 10 -5 -4 -5 -12 -8 -18 -6
-13 4 -18 37 -5 37 6 0 7 -7 4 -16z m-141 -34 c-3 -4 0 -11 5 -13 6 -3 5 -4
-1 -3 -7 1 -13 10 -15 19 -1 9 2 15 7 11 5 -3 7 -9 4 -14z m218 -7 c-5 -12 -3
-14 7 -8 9 5 11 4 6 -4 -10 -16 -25 -4 -23 19 1 10 5 17 9 14 4 -3 4 -12 1
-21z m42 17 c-3 -5 -12 -10 -18 -10 -7 0 -6 4 3 10 19 12 23 12 15 0z m-315
-4 c0 -3 -4 -8 -10 -11 -5 -3 -10 -1 -10 4 0 6 5 11 10 11 6 0 10 -2 10 -4z
m34 -22 c3 -8 2 -12 -4 -9 -6 3 -10 10 -10 16 0 14 7 11 14 -7z m-20 -10 c3
-8 2 -12 -4 -9 -6 3 -10 10 -10 16 0 14 7 11 14 -7z m237 -8 c5 3 8 2 7 -3 -1
-4 3 -18 10 -30 7 -13 9 -23 5 -24 -4 0 1 -5 12 -10 19 -8 19 -9 1 -6 -11 1
-20 10 -22 20 -1 10 -10 27 -18 36 -9 10 -16 22 -15 27 0 5 3 3 6 -4 2 -6 9
-10 14 -6z m-155 -47 c16 -7 17 -8 2 -8 -17 -1 -48 35 -48 54 1 5 7 -1 14 -14
8 -14 22 -28 32 -32z m-9 29 c-3 -8 -6 -5 -6 6 -1 11 2 17 5 13 3 -3 4 -12 1
-19z m66 7 c-3 -9 -8 -14 -10 -11 -3 3 -2 9 2 15 9 16 15 13 8 -4z m147 5 c0
-5 -8 -10 -17 -10 -15 0 -16 2 -3 10 19 12 20 12 20 0z m-106 -42 c-5 -7 -1
-9 9 -5 10 3 17 2 17 -4 0 -6 -8 -9 -17 -7 -10 2 -17 10 -15 16 1 7 -5 12 -13
12 -8 0 -15 5 -15 10 0 7 7 7 20 0 11 -6 17 -16 14 -22z m55 -7 c-1 -13 -2
-13 -6 2 -2 9 -9 17 -14 17 -5 0 -9 5 -9 11 0 8 5 8 15 -1 8 -7 14 -20 14 -29z
m91 23 c-6 -6 -9 -13 -7 -15 1 -2 -3 1 -9 8 -6 7 -15 9 -19 5 -5 -4 -6 -2 -2
3 3 6 15 11 26 11 14 0 17 -4 11 -12z m-168 -56 c-11 -11 -12 -10 -6 5 4 12 2
17 -6 15 -7 -2 -14 6 -16 16 -2 18 -1 18 19 -2 17 -18 19 -24 9 -34z m143 32
c3 -6 -1 -7 -9 -4 -18 7 -21 14 -7 14 6 0 13 -4 16 -10z m-164 -45 c7 -13 3
-12 -10 5 -11 14 -21 30 -21 35 0 11 14 -7 31 -40z m-26 -1 c9 -15 12 -23 6
-20 -11 7 -35 46 -28 46 3 0 12 -12 22 -26z m71 11 c-4 -10 1 -14 17 -12 15 1
21 -3 18 -13 -2 -8 -4 -21 -4 -27 0 -9 -4 -10 -14 -2 -15 13 -18 23 -4 15 5
-3 12 1 15 10 5 12 2 15 -10 10 -21 -8 -34 1 -27 19 3 8 7 15 10 15 3 0 3 -7
-1 -15z m83 0 c3 -3 -7 -4 -23 -1 -16 3 -31 8 -35 11 -3 3 7 4 23 1 16 -3 31
-8 35 -11z m-171 -26 c10 -15 11 -24 3 -32 -6 -6 -11 -7 -11 -1 0 5 -5 2 -11
-6 -9 -13 -10 -13 -6 0 2 8 10 14 16 13 16 -4 14 7 -6 29 -9 10 -12 18 -7 18
5 0 15 -10 22 -21z m192 -4 c5 3 11 1 14 -4 3 -4 -4 -8 -17 -7 -13 1 -21 -4
-19 -12 1 -8 -2 -11 -8 -7 -6 4 -5 13 3 26 6 10 13 15 15 9 2 -6 8 -8 12 -5z
m-123 -1 c-3 -4 4 -15 16 -26 22 -19 22 -19 -10 -2 -23 13 -29 21 -20 26 15 9
23 10 14 2z m-37 -24 c0 -6 -13 -18 -30 -29 -16 -10 -27 -21 -22 -26 4 -5 1
-5 -7 0 -9 5 -12 3 -9 -6 3 -8 14 -13 24 -12 10 1 13 0 6 -3 -6 -3 -9 -11 -6
-17 5 -8 2 -8 -7 1 -18 17 -27 15 -25 -4 0 -9 -7 -18 -17 -19 -9 -2 -15 1 -11
6 3 5 9 7 13 4 5 -2 9 7 10 20 1 14 2 31 3 39 1 8 14 17 30 20 16 3 31 12 34
21 7 17 14 20 14 5z m118 -11 c9 -12 9 -16 -1 -16 -7 0 -14 9 -14 20 -1 11 -1
18 0 16 2 -2 8 -11 15 -20z m55 -4 c-3 -9 -8 -14 -10 -11 -3 3 -2 9 2 15 9 16
15 13 8 -4z m-161 -13 c-10 -10 -27 -22 -38 -26 -12 -4 -8 3 11 18 35 29 54
35 27 8z m173 -12 c-3 -5 -12 -10 -18 -10 -7 0 -6 4 3 10 19 12 23 12 15 0z
m29 -38 c3 -5 -1 -9 -9 -9 -8 0 -12 4 -9 9 3 4 7 8 9 8 2 0 6 -4 9 -8z m-142
-504 c-7 -7 -12 -8 -12 -2 0 6 3 14 7 17 3 4 9 5 12 2 2 -3 -1 -11 -7 -17z
m12 -32 c-3 -9 -10 -16 -15 -16 -6 0 -1 -10 10 -22 11 -11 18 -24 16 -28 -2
-4 2 -7 10 -7 8 0 12 4 9 9 -3 4 2 5 10 2 11 -4 16 0 16 12 0 11 -4 15 -8 9
-13 -18 -30 -15 -35 6 -4 14 -2 18 6 11 7 -5 31 -9 54 -7 35 1 41 -1 32 -12
-9 -10 -15 -11 -26 -2 -10 9 -12 9 -8 -3 4 -9 -4 -19 -20 -28 -22 -12 -23 -15
-11 -29 13 -14 13 -19 0 -35 -11 -16 -17 -17 -26 -8 -7 7 -8 12 -4 12 5 0 -3
9 -17 21 -19 14 -31 18 -43 11 -15 -8 -15 -10 0 -15 11 -5 15 -3 10 5 -4 7 -3
8 4 4 19 -11 14 -26 -8 -26 -11 0 -17 -5 -15 -13 3 -6 -4 -18 -16 -25 -12 -8
-19 -10 -17 -5 27 48 30 103 9 120 -9 6 -19 9 -22 7 -4 -2 -9 2 -12 9 -3 7 3
13 13 13 10 0 17 -4 14 -7 -2 -4 0 -10 5 -13 5 -3 11 1 15 9 3 8 11 15 18 15
10 0 9 -3 -1 -9 -21 -14 -7 -36 25 -38 25 -2 27 -1 14 10 -18 14 -24 57 -9 57
6 0 7 5 3 12 -4 7 -3 8 4 4 7 -4 12 -2 12 5 0 7 2 10 5 7 3 -3 3 -13 -1 -22z
m61 -155 c3 -5 1 -12 -5 -16 -5 -3 -10 1 -10 9 0 18 6 21 15 7z m-604 -203 c1
-13 2 -31 2 -41 0 -10 2 -15 5 -12 8 8 43 -105 36 -117 -4 -6 -3 -8 4 -4 6 3
13 3 15 -1 3 -5 53 -8 111 -7 58 0 106 -1 106 -2 0 -7 -85 -58 -92 -56 -5 1
-8 -5 -8 -14 0 -8 -4 -13 -9 -10 -5 3 -11 -1 -15 -9 -3 -8 -11 -15 -17 -15 -7
0 -17 -8 -24 -17 -12 -16 -9 -36 13 -93 3 -8 6 -18 7 -22 2 -5 3 -9 5 -10 1
-2 3 -10 5 -18 2 -8 8 -29 13 -47 8 -26 8 -31 -4 -26 -8 3 -14 8 -14 12 0 4
-15 15 -32 26 -18 10 -35 21 -38 25 -3 4 -22 18 -44 33 -37 25 -40 25 -65 9
-30 -19 -46 -31 -70 -52 -9 -8 -29 -21 -44 -29 -15 -8 -27 -18 -27 -23 0 -5
-4 -7 -8 -4 -5 3 6 49 23 103 30 91 34 123 15 123 -4 0 -23 13 -41 30 -19 16
-40 30 -46 30 -7 0 -13 5 -13 10 0 6 -11 16 -25 22 -42 19 -28 29 38 28 151
-4 155 -3 162 30 4 17 10 28 14 25 5 -2 6 7 3 22 -4 19 -2 24 8 18 8 -5 11 -4
7 2 -4 6 0 29 7 51 8 22 12 43 9 46 -4 3 1 6 10 6 11 0 18 -9 18 -22z m-1999
-163 c13 -40 14 -40 61 -39 26 1 47 -2 47 -6 0 -5 -16 -18 -35 -30 -36 -22
-46 -55 -24 -77 6 -6 9 -19 7 -29 -3 -17 -5 -17 -26 4 -12 12 -27 22 -33 22
-5 0 -7 6 -3 13 6 9 5 9 -8 0 -8 -7 -18 -10 -21 -6 -4 3 -7 2 -7 -3 0 -5 -14
-18 -32 -28 -31 -19 -31 -19 -24 0 28 68 27 73 -16 104 -23 17 -39 30 -37 31
25 6 66 5 76 -3 16 -13 42 38 45 90 2 20 16 0 30 -43z m682 -47 c1 -7 4 -17 7
-23 3 -5 16 -45 29 -87 l24 -78 108 0 c59 0 108 -4 108 -9 0 -5 -15 -18 -32
-30 -51 -32 -81 -54 -111 -81 -23 -22 -27 -30 -19 -51 5 -13 9 -26 9 -29 0 -3
4 -14 10 -25 6 -11 18 -44 27 -73 l16 -54 -27 18 c-28 18 -42 29 -68 52 -7 6
-18 12 -23 12 -5 0 -15 7 -22 16 -24 28 -46 34 -66 18 -50 -39 -158 -113 -161
-110 -2 1 8 33 21 69 13 37 22 67 19 67 -3 0 0 6 6 13 6 8 8 17 4 20 -3 4 -1
7 5 7 13 0 6 44 -7 48 -8 3 -62 42 -97 71 -5 4 -20 14 -32 20 -42 22 -21 30
85 33 l107 3 17 47 c9 26 14 49 11 52 -3 4 1 6 8 6 7 0 11 3 8 6 -4 3 1 26 9
50 15 44 22 50 27 22z m2376 -18 c0 -4 -7 -13 -15 -20 -12 -10 -18 -10 -30 0
-8 7 -13 15 -11 19 6 9 56 10 56 1z m-167 -101 c-6 -6 -9 -19 -6 -28 4 -12 3
-13 -6 -5 -13 12 -5 44 12 44 8 0 8 -3 0 -11z m-1466 -341 c-9 -6 -9 -8 -1 -8
7 0 14 -9 17 -20 4 -17 13 -20 51 -18 53 2 66 -6 37 -21 -27 -15 -76 -61 -65
-61 13 0 34 -59 24 -65 -5 -3 -13 3 -19 12 -6 10 -11 14 -11 9 0 -5 -9 -1 -20
9 -20 18 -21 17 -61 -14 l-41 -33 5 28 c3 16 10 41 15 55 10 24 7 27 -24 42
-19 9 -34 22 -34 27 0 6 -6 8 -12 4 -7 -4 -9 -3 -5 2 11 12 87 11 88 -1 1 -17
38 69 39 90 1 18 2 17 15 -5 10 -19 10 -27 2 -32z"/>
<path d="M3590 4646 c0 -2 8 -10 18 -17 15 -13 16 -12 3 4 -13 16 -21 21 -21
13z"/>
<path d="M3556 4598 c3 -5 10 -6 15 -3 13 9 11 12 -6 12 -8 0 -12 -4 -9 -9z"/>
<path d="M3599 4599 c-8 -4 -3 -12 15 -24 14 -10 23 -22 19 -29 -4 -6 1 -5 10
3 16 12 16 16 2 31 -8 9 -13 19 -10 22 8 7 -23 6 -36 -3z m36 -19 c10 -11 16
-20 13 -20 -3 0 -13 9 -23 20 -10 11 -16 20 -13 20 3 0 13 -9 23 -20z"/>
<path d="M4809 4398 c-12 -5 -29 -18 -36 -28 -8 -11 -19 -20 -24 -20 -6 0 -17
-7 -26 -15 -8 -8 -19 -12 -25 -9 -6 4 -9 3 -6 -2 3 -5 -19 -26 -49 -46 -30
-21 -51 -32 -47 -25 3 6 -5 -1 -20 -18 -14 -16 -25 -26 -26 -20 0 5 -7 -1 -16
-13 -8 -12 -21 -22 -27 -22 -7 0 -18 -9 -25 -20 -7 -12 -17 -18 -22 -15 -5 3
-12 0 -15 -6 -4 -5 -13 -8 -21 -5 -8 3 -11 0 -7 -10 6 -17 -23 -19 -31 -1 -2
6 -4 1 -3 -13 2 -22 -2 -25 -28 -23 -22 2 -26 0 -15 -7 13 -8 13 -11 1 -22
-12 -11 -13 -10 -7 2 4 8 0 6 -8 -4 -14 -18 -21 -15 -17 7 1 5 -3 6 -9 2 -6
-3 -8 -11 -4 -16 10 -17 -17 -40 -40 -34 -17 5 -18 4 -6 -4 13 -9 12 -12 -7
-17 -14 -4 -20 -11 -16 -18 4 -6 -1 -5 -10 3 -9 7 -14 18 -10 24 4 6 1 7 -6 2
-9 -5 -10 -10 -2 -18 16 -16 14 -27 -5 -27 -9 0 -12 -5 -8 -12 5 -8 2 -9 -10
-5 -11 4 -15 3 -11 -4 4 -6 -2 -13 -14 -16 -12 -3 -21 -10 -21 -16 0 -6 -3 -8
-6 -5 -3 3 -15 -4 -28 -16 -40 -38 -64 -54 -70 -49 -3 4 -6 2 -6 -4 0 -5 -15
-18 -34 -28 -19 -11 -33 -22 -30 -26 2 -4 -1 -11 -7 -15 -7 -4 -9 -3 -5 4 3 6
2 13 -4 17 -5 3 -10 -1 -10 -9 0 -20 -57 -59 -72 -50 -7 4 -10 4 -6 -1 9 -10
-10 -47 -21 -41 -4 3 -17 -2 -27 -12 -29 -26 -134 -103 -134 -98 0 2 -16 -11
-37 -30 -20 -18 -40 -31 -45 -28 -4 3 -8 1 -8 -4 0 -9 -79 -69 -93 -71 -4 0
-18 -12 -31 -26 -13 -14 -28 -25 -33 -25 -6 0 -16 -7 -23 -15 -7 -8 -17 -12
-24 -8 -6 3 -8 3 -4 -2 6 -6 -49 -50 -181 -143 -13 -9 -32 -25 -43 -34 -10
-10 -21 -19 -25 -20 -5 -1 -42 -26 -83 -56 -41 -31 -120 -88 -175 -128 -55
-40 -108 -80 -117 -88 -10 -9 -18 -14 -18 -11 0 3 -6 1 -12 -5 -7 -5 -29 -24
-48 -40 -19 -16 -43 -32 -52 -36 -10 -3 -18 -9 -18 -14 0 -5 -8 -11 -18 -14
-10 -4 -27 -14 -38 -24 -10 -10 -41 -33 -69 -52 -27 -18 -52 -36 -55 -39 -3
-4 -31 -24 -62 -45 -32 -22 -58 -43 -58 -48 0 -4 -4 -7 -9 -6 -5 2 -23 -9 -40
-24 -17 -16 -34 -28 -38 -28 -5 0 -24 -14 -43 -30 -19 -17 -42 -32 -51 -35
-16 -5 -28 -30 -34 -65 -1 -8 -9 -32 -18 -52 -8 -20 -13 -39 -9 -42 3 -3 1 -6
-4 -6 -5 0 -10 -9 -11 -20 -1 -11 -9 -34 -17 -50 -8 -17 -10 -28 -5 -24 7 4 7
0 0 -12 -9 -19 -21 -49 -27 -69 -1 -5 -19 -59 -39 -120 -20 -60 -38 -117 -40
-125 -2 -8 -4 -16 -5 -17 -2 -2 -4 -7 -5 -13 -1 -5 -4 -12 -5 -15 -1 -3 -4 -9
-5 -15 -1 -5 -4 -12 -5 -15 -1 -3 -3 -9 -4 -14 0 -5 -4 -13 -8 -17 -5 -4 -8
-18 -8 -30 0 -13 -5 -26 -10 -29 -6 -4 -8 -11 -5 -16 4 -5 2 -9 -2 -9 -5 0
-10 -8 -11 -17 -4 -39 -9 -55 -18 -61 -5 -4 -10 -20 -12 -37 -2 -16 -9 -36
-15 -44 -9 -11 -9 -15 1 -18 6 -3 9 -10 6 -15 -4 -7 -2 -8 5 -4 6 4 9 11 7 15
-3 4 8 15 25 25 16 9 29 21 29 27 0 5 7 9 15 9 9 0 26 10 39 23 12 13 46 38
74 56 29 18 52 37 52 42 0 5 7 9 15 9 9 0 18 7 21 15 4 8 10 12 15 9 5 -3 9
-1 9 3 0 5 15 17 33 28 17 10 34 21 37 25 9 11 269 200 276 200 4 0 14 8 23
18 9 9 24 22 32 27 41 25 195 139 201 149 5 6 8 7 8 1 0 -6 3 -6 8 0 4 6 23
22 42 35 19 13 40 29 47 35 24 20 39 31 108 80 71 50 143 103 180 131 11 8 32
23 48 32 15 9 27 20 27 24 0 4 5 8 10 8 6 0 23 11 37 24 15 14 30 23 35 20 4
-3 8 -1 8 3 0 5 32 31 71 58 39 28 80 59 91 70 12 11 17 13 13 5 -5 -8 6 0 23
18 18 17 36 32 41 32 5 0 16 6 23 13 29 27 128 97 138 97 5 0 10 3 10 8 0 4
17 18 38 32 20 14 39 27 42 31 3 3 28 21 55 39 28 19 55 39 62 45 30 26 42 34
79 57 22 14 45 33 53 42 7 8 17 13 22 10 5 -3 9 -1 9 5 0 5 15 19 33 30 18 11
46 31 62 45 17 14 35 26 41 26 7 0 15 7 18 16 4 9 9 14 13 10 3 -3 12 3 20 14
8 11 19 20 24 20 6 0 17 6 24 13 34 30 43 35 49 30 3 -4 6 -2 6 4 0 6 19 23
43 39 23 16 47 33 52 37 6 4 35 26 65 47 30 21 63 46 73 55 9 8 22 15 27 15 6
0 10 5 10 10 0 6 6 10 14 10 8 0 16 4 18 8 2 5 28 26 58 48 30 21 61 44 68 51
8 7 18 10 24 7 6 -4 8 -3 5 3 -3 5 8 18 26 28 34 20 48 30 78 58 10 9 21 17
24 17 7 0 64 40 83 58 8 7 19 9 25 5 7 -3 9 -2 4 2 -9 11 43 46 57 38 5 -4 7
1 3 11 -5 13 -3 17 7 13 8 -3 17 -1 20 6 3 9 8 8 16 -3 10 -13 11 -13 9 0 -3
26 1 40 9 38 4 -2 16 5 27 15 11 9 23 17 28 17 4 0 15 8 25 18 57 53 62 55 85
35 13 -12 17 -13 12 -3 -14 22 -15 39 -3 47 7 3 8 1 4 -5 -4 -7 -2 -12 3 -12
6 0 11 6 11 14 0 19 25 27 39 13 9 -9 11 -6 9 13 -2 14 2 25 10 26 6 1 17 2
23 3 5 0 7 7 3 14 -5 7 0 6 11 -3 17 -14 18 -13 12 4 -6 14 -4 17 8 12 11 -4
15 0 13 12 -2 11 4 17 15 17 10 0 23 8 28 17 6 11 16 15 26 11 12 -5 14 -3 8
7 -6 10 -4 12 9 7 13 -5 17 -3 13 6 -4 10 4 13 25 13 25 -1 31 3 35 24 4 29
17 38 48 34 17 -1 22 2 18 13 -5 12 -7 12 -14 1 -5 -7 -9 -8 -9 -2 0 19 13 24
29 12 9 -7 13 -9 9 -4 -10 12 10 46 27 46 8 0 15 5 15 10 0 6 11 15 24 22 71
32 41 34 -454 34 -268 0 -498 -4 -511 -8z m808 -163 c0 -8 -6 -15 -14 -15 -17
0 -17 17 0 23 6 3 12 6 13 6 0 1 1 -6 1 -14z"/>
<path d="M6177 4386 c-17 -11 -34 -23 -37 -26 -16 -19 -68 -48 -75 -42 -5 4
-5 2 -1 -5 4 -7 -9 -20 -34 -34 -22 -13 -40 -27 -40 -31 0 -5 -4 -6 -10 -3 -5
3 -10 1 -10 -4 0 -6 -4 -11 -10 -11 -5 0 -19 -8 -29 -17 -53 -49 -98 -76 -110
-68 -6 3 -9 0 -6 -8 4 -8 -6 -19 -22 -28 -15 -7 -43 -27 -61 -44 -18 -16 -38
-29 -43 -27 -5 1 -9 -2 -9 -8 0 -5 -7 -10 -15 -10 -8 0 -15 -4 -15 -9 0 -5
-16 -19 -36 -32 -20 -12 -44 -31 -55 -42 -10 -12 -19 -18 -19 -14 0 4 -8 0
-17 -8 -57 -49 -93 -76 -93 -70 0 5 -11 -4 -25 -19 -14 -15 -25 -24 -25 -21 0
4 -7 0 -15 -7 -32 -29 -45 -38 -45 -33 0 3 -15 -8 -32 -24 -18 -17 -37 -31
-41 -31 -5 0 -14 -6 -22 -12 -7 -7 -23 -21 -36 -30 -114 -81 -235 -172 -240
-180 -3 -5 -9 -9 -13 -9 -8 2 -47 -25 -83 -56 -14 -12 -33 -25 -43 -28 -10 -3
-21 -12 -24 -20 -3 -8 -11 -15 -18 -15 -8 0 -21 -8 -30 -17 -27 -29 -48 -44
-48 -36 0 4 -4 3 -8 -2 -4 -6 -41 -35 -82 -65 -41 -30 -78 -59 -82 -65 -4 -5
-8 -6 -8 -2 0 8 -14 -2 -55 -41 -14 -13 -25 -20 -25 -17 0 3 -6 1 -12 -5 -15
-12 -73 -55 -114 -85 -15 -11 -33 -26 -40 -32 -7 -7 -16 -13 -19 -13 -4 0 -20
-10 -35 -22 -16 -13 -45 -34 -65 -48 -19 -14 -46 -33 -58 -43 -12 -10 -34 -26
-49 -35 -16 -9 -28 -20 -28 -24 0 -4 -4 -8 -10 -8 -5 0 -21 -10 -36 -22 -14
-13 -28 -21 -31 -20 -3 2 -9 0 -12 -5 -8 -13 -211 -164 -211 -158 0 3 -9 -3
-19 -12 -32 -30 -54 -47 -71 -58 -72 -45 -90 -58 -90 -66 0 -5 -5 -9 -11 -9
-6 0 -24 -10 -39 -22 -15 -13 -37 -30 -50 -38 -13 -8 -45 -32 -71 -52 -27 -21
-51 -38 -54 -38 -4 0 -12 -6 -19 -12 -7 -7 -24 -21 -37 -30 -13 -10 -70 -52
-126 -93 -57 -41 -103 -72 -103 -68 0 3 -8 -3 -17 -14 -10 -10 -39 -34 -65
-51 -25 -18 -54 -39 -62 -48 -9 -8 -16 -12 -16 -7 0 4 -4 3 -8 -2 -4 -6 -63
-51 -132 -100 -69 -50 -130 -94 -137 -100 -7 -5 -19 -16 -28 -23 -8 -7 -15
-10 -15 -5 0 4 -6 0 -12 -8 -7 -9 -38 -33 -68 -55 -30 -21 -56 -42 -58 -46 -2
-5 -8 -8 -13 -8 -8 0 -71 -44 -121 -85 -9 -8 -29 -22 -45 -32 -15 -10 -33 -22
-40 -28 -21 -17 -37 -29 -88 -64 -28 -19 -52 -37 -55 -40 -3 -4 -27 -22 -55
-41 -27 -19 -59 -42 -69 -52 -11 -10 -25 -18 -30 -18 -6 0 -22 -12 -35 -25
-13 -14 -30 -25 -38 -25 -8 0 -11 -4 -8 -10 3 -5 0 -10 -7 -10 -11 0 -62 -36
-114 -79 -12 -10 -65 -156 -71 -196 -2 -11 -8 -24 -13 -29 -6 -6 -10 -20 -10
-32 0 -13 -5 -26 -11 -29 -6 -4 -8 -13 -5 -21 3 -8 2 -14 -2 -14 -4 0 -8 -8
-9 -17 -1 -10 -7 -31 -14 -48 -7 -16 -13 -37 -15 -46 -2 -8 -19 -61 -38 -117
-19 -55 -31 -103 -28 -106 3 -3 -1 -6 -8 -6 -7 0 -11 -3 -7 -6 3 -3 -3 -28
-13 -55 -11 -27 -17 -49 -15 -49 3 0 -1 -13 -10 -30 -9 -16 -13 -30 -10 -30 2
0 -4 -22 -15 -50 -11 -27 -15 -50 -10 -50 12 0 48 20 65 35 7 6 24 19 39 30
16 11 34 26 42 33 8 7 14 11 14 7 0 -3 10 4 23 15 12 12 45 37 72 55 28 19 61
44 75 57 13 13 26 21 28 19 2 -1 15 6 28 18 13 11 41 31 61 44 21 14 44 32 52
41 7 9 19 16 26 16 8 0 15 4 17 8 2 4 25 23 52 42 28 19 58 42 67 50 9 8 49
38 88 65 40 28 93 66 120 85 65 48 83 61 186 135 50 35 97 70 105 78 8 7 29
21 45 32 17 10 36 25 43 32 8 7 23 18 35 24 22 12 37 24 68 52 10 9 19 15 19
12 0 -3 8 2 18 10 9 8 35 28 57 44 22 17 45 35 52 41 7 5 17 10 23 10 5 0 10
3 10 8 0 4 25 23 55 42 30 19 55 38 55 43 0 4 6 7 14 7 8 0 17 7 20 16 3 8 10
13 15 10 5 -3 12 1 15 10 4 9 9 14 12 12 3 -3 19 7 37 23 17 16 37 29 43 29 7
0 14 4 16 8 3 8 70 60 118 92 12 8 28 20 35 27 7 7 15 9 19 6 3 -4 6 -1 6 5 0
13 71 58 85 54 5 -2 7 0 3 3 -7 7 39 50 52 50 3 0 12 6 20 13 53 45 76 62 86
62 7 0 14 7 18 15 3 8 10 15 16 15 6 0 25 13 43 30 18 16 36 30 40 30 4 0 37
22 72 50 35 27 69 50 75 50 5 0 10 4 10 8 0 4 12 15 28 24 15 9 38 26 51 37
13 11 28 18 34 14 5 -3 7 -2 4 4 -4 5 5 16 18 23 14 7 25 17 25 22 0 4 7 8 15
8 8 0 15 5 15 10 0 6 5 10 11 10 6 0 16 6 23 13 8 6 24 19 36 27 12 8 30 22
40 30 10 8 28 22 40 30 70 49 440 317 480 348 14 11 29 21 34 23 6 2 19 12 30
21 12 10 66 50 121 90 55 40 102 75 105 78 3 3 12 10 22 15 34 21 175 124 191
140 10 9 17 13 17 9 0 -4 12 5 26 19 14 15 35 29 45 32 10 4 19 11 19 16 0 6
5 7 10 4 6 -3 10 -2 10 2 0 5 32 31 71 58 39 28 76 55 82 60 7 6 25 19 42 29
16 11 34 23 40 28 5 5 24 20 40 33 17 14 35 25 41 25 7 0 14 7 18 15 3 8 12
15 20 15 8 0 16 4 18 8 4 12 447 332 459 332 5 0 9 4 9 8 0 4 28 28 63 52 34
24 105 76 158 114 53 39 131 96 174 126 43 30 83 60 89 65 6 6 21 17 32 25 55
38 190 135 201 145 24 20 39 31 143 105 58 41 111 80 118 87 7 7 18 13 23 13
5 0 9 4 9 8 0 4 -221 8 -490 8 -473 0 -491 -1 -523 -20z"/>
<path d="M4479 4353 c-13 -16 -12 -17 4 -4 16 13 21 21 13 21 -2 0 -10 -8 -17
-17z"/>
<path d="M4436 4339 c2 -4 -1 -9 -7 -11 -7 -2 -10 -9 -8 -15 2 -6 11 -1 21 11
13 18 13 23 3 23 -8 0 -12 -4 -9 -8z"/>
<path d="M5856 4338 c3 -4 11 -5 19 -1 21 7 19 12 -4 10 -11 0 -18 -5 -15 -9z"/>
<path d="M4345 4320 c-3 -5 -1 -10 4 -10 6 0 11 5 11 10 0 6 -2 10 -4 10 -3 0
-8 -4 -11 -10z"/>
<path d="M4459 4313 c-13 -17 -13 -17 6 -3 11 8 22 16 24 17 2 2 0 3 -6 3 -6
0 -17 -8 -24 -17z"/>
<path d="M5751 4327 c2 -2 11 -8 20 -15 12 -9 16 -9 16 1 0 7 -9 14 -20 14
-11 1 -18 1 -16 0z"/>
<path d="M4375 4299 c7 -11 35 -12 35 -1 0 4 -9 8 -20 9 -11 1 -18 -2 -15 -8z"/>
<path d="M5750 4295 c13 -17 13 -18 -2 -13 -17 7 -20 -14 -3 -29 4 -5 5 -2 0
6 -6 11 -4 13 9 8 9 -4 15 -3 11 2 -3 5 -1 11 5 13 6 2 0 9 -12 17 -22 13 -22
13 -8 -4z"/>
<path d="M4331 4292 c-1 -14 26 -28 36 -18 4 3 1 12 -7 19 -10 9 -11 9 -6 0 4
-7 3 -13 -3 -13 -5 0 -12 6 -14 13 -4 9 -6 9 -6 -1z"/>
<path d="M4415 4280 c-3 -5 -1 -10 4 -10 6 0 11 5 11 10 0 6 -2 10 -4 10 -3 0
-8 -4 -11 -10z"/>
<path d="M4316 4253 c-6 -14 -5 -15 5 -6 7 7 10 15 7 18 -3 3 -9 -2 -12 -12z"/>
<path d="M4379 4268 c-6 -21 -6 -39 1 -43 5 -3 7 3 6 12 -2 10 2 21 8 25 8 5
7 8 -1 8 -7 0 -13 -1 -14 -2z"/>
<path d="M5710 4261 c0 -10 29 -36 34 -30 1 2 -6 12 -16 22 -10 9 -18 13 -18
8z"/>
<path d="M4254 4245 c-4 -8 -12 -15 -20 -15 -7 0 -19 -9 -27 -20 -8 -11 -16
-18 -18 -16 -2 3 -4 -14 -4 -36 0 -26 -5 -43 -14 -46 -8 -3 -11 0 -7 7 4 6 1
11 -6 11 -10 0 -9 3 2 10 8 5 11 12 7 17 -12 11 -27 -19 -18 -36 5 -9 6 -22 3
-30 -3 -8 10 0 29 17 30 28 35 29 41 14 5 -14 7 -14 7 -1 1 23 -10 31 -26 18
-9 -8 -13 -8 -13 -1 0 6 8 17 18 24 10 7 22 20 27 28 5 9 0 8 -13 -4 -12 -11
-22 -15 -22 -10 0 17 15 31 48 48 18 9 30 21 27 26 -9 14 -15 12 -21 -5z"/>
<path d="M4335 4239 c-11 -16 -1 -19 13 -3 7 8 8 14 3 14 -5 0 -13 -5 -16 -11z"/>
<path d="M5640 4240 c0 -5 5 -10 11 -10 5 0 7 5 4 10 -3 6 -8 10 -11 10 -2 0
-4 -4 -4 -10z"/>
<path d="M5676 4234 c-9 -24 -2 -26 12 -4 7 11 8 20 3 20 -5 0 -12 -7 -15 -16z"/>
<path d="M4273 4223 c-13 -8 -23 -19 -23 -24 0 -5 10 -13 23 -19 21 -11 21
-10 3 4 -11 9 -17 19 -13 22 4 4 13 1 22 -6 10 -8 15 -9 15 -1 0 6 -5 11 -11
11 -8 0 -8 5 1 15 16 19 11 18 -17 -2z"/>
<path d="M4315 4203 c2 -23 -1 -36 -13 -43 -9 -5 -12 -10 -5 -10 24 0 38 43
23 69 -7 11 -8 6 -5 -16z"/>
<path d="M4350 4221 c0 -6 4 -13 10 -16 6 -3 7 1 4 9 -7 18 -14 21 -14 7z"/>
<path d="M5699 4228 c-1 -2 -3 -13 -4 -26 -2 -19 0 -20 14 -10 26 20 27 22 7
14 -14 -5 -17 -2 -12 9 4 12 0 23 -5 13z"/>
<path d="M5770 4220 c0 -5 5 -10 11 -10 5 0 7 5 4 10 -3 6 -8 10 -11 10 -2 0
-4 -4 -4 -10z"/>
<path d="M4450 4199 c0 -5 5 -7 10 -4 6 3 10 8 10 11 0 2 -4 4 -10 4 -5 0 -10
-5 -10 -11z"/>
<path d="M5630 4206 c0 -2 9 -6 20 -9 11 -3 18 -1 14 4 -5 9 -34 13 -34 5z"/>
<path d="M5610 4194 c0 -2 9 -8 20 -14 11 -6 20 -7 20 -2 0 6 -9 12 -20 15
-11 3 -20 3 -20 1z"/>
<path d="M4155 4180 c-3 -5 -1 -10 4 -10 6 0 11 5 11 10 0 6 -2 10 -4 10 -3 0
-8 -4 -11 -10z"/>
<path d="M5574 4179 c-5 -9 -2 -10 10 -6 13 5 17 3 13 -6 -3 -8 -1 -20 4 -28
5 -9 7 -5 6 15 -2 31 -20 45 -33 25z"/>
<path d="M5733 4175 c0 -8 4 -12 9 -9 5 3 6 10 3 15 -9 13 -12 11 -12 -6z"/>
<path d="M4236 4165 c-3 -8 -1 -15 4 -15 6 0 10 7 10 15 0 8 -2 15 -4 15 -2 0
-6 -7 -10 -15z"/>
<path d="M4434 4172 c3 -5 0 -13 -6 -15 -9 -4 -10 -6 -1 -6 17 -1 25 16 12 25
-7 4 -9 3 -5 -4z"/>
<path d="M5547 4153 c5 -12 3 -14 -7 -8 -9 5 -11 4 -6 -4 4 -6 12 -9 17 -6 12
8 12 35 -1 35 -5 0 -6 -7 -3 -17z"/>
<path d="M5620 4164 c0 -5 9 -15 20 -21 15 -10 21 -10 26 0 4 6 3 9 -1 4 -5
-4 -17 0 -27 10 -10 9 -18 12 -18 7z"/>
<path d="M4104 4139 c-19 -22 -19 -22 4 -8 12 8 22 17 22 21 0 12 -6 9 -26
-13z"/>
<path d="M5478 4142 c7 -5 10 -16 7 -24 -4 -9 -2 -19 4 -23 7 -4 8 0 4 11 -5
12 -3 15 6 9 10 -6 11 -3 2 14 -7 11 -17 21 -24 21 -9 0 -9 -2 1 -8z"/>
<path d="M5510 4141 c0 -6 4 -13 10 -16 6 -3 7 1 4 9 -7 18 -14 21 -14 7z"/>
<path d="M5573 4143 c4 -6 2 -13 -4 -15 -7 -2 -6 -8 3 -16 12 -9 14 -8 13 8
-1 11 -5 23 -10 27 -4 5 -5 3 -2 -4z"/>
<path d="M4266 4118 c3 -5 10 -6 15 -3 13 9 11 12 -6 12 -8 0 -12 -4 -9 -9z"/>
<path d="M4199 4108 c-6 -20 -5 -37 1 -33 5 3 10 0 12 -7 3 -7 7 -3 10 9 4 17
2 20 -10 16 -10 -4 -13 -2 -8 5 4 7 5 12 2 12 -3 0 -6 -1 -7 -2z"/>
<path d="M5415 4080 c-3 -6 1 -7 9 -4 18 7 21 14 7 14 -6 0 -13 -4 -16 -10z"/>
<path d="M5510 4079 c0 -5 5 -7 10 -4 6 3 10 8 10 11 0 2 -4 4 -10 4 -5 0 -10
-5 -10 -11z"/>
<path d="M4166 4045 c-11 -8 -15 -15 -9 -15 6 0 16 7 23 15 16 19 11 19 -14 0z"/>
<path d="M4120 4030 c6 -11 12 -20 14 -20 2 0 2 9 -1 20 -3 11 -9 20 -15 20
-5 0 -4 -9 2 -20z"/>
<path d="M4215 4040 c-3 -5 -1 -10 4 -10 6 0 11 5 11 10 0 6 -2 10 -4 10 -3 0
-8 -4 -11 -10z"/>
<path d="M5350 4046 c0 -2 7 -7 16 -10 8 -3 12 -2 9 4 -6 10 -25 14 -25 6z"/>
<path d="M5406 4038 c3 -5 9 -7 12 -4 3 3 12 0 21 -6 13 -10 14 -10 4 2 -15
16 -46 23 -37 8z"/>
<path d="M5371 4004 c0 -11 3 -14 6 -6 3 7 2 16 -1 19 -3 4 -6 -2 -5 -13z"/>
<path d="M4086 4002 c-3 -5 1 -9 9 -9 8 0 15 4 15 9 0 4 -4 8 -9 8 -6 0 -12
-4 -15 -8z"/>
<path d="M5290 4001 c0 -6 4 -13 10 -16 6 -3 7 1 4 9 -7 18 -14 21 -14 7z"/>
<path d="M3987 3993 c-4 -3 -7 -11 -7 -17 0 -6 5 -4 11 4 8 11 12 12 16 3 2
-7 9 -13 15 -13 6 0 6 6 -2 15 -14 16 -23 19 -33 8z"/>
<path d="M5253 3978 c-12 -6 -24 -20 -27 -32 -5 -20 -4 -20 9 -3 7 10 22 25
32 32 21 17 16 18 -14 3z"/>
<path d="M4040 3971 c0 -6 4 -13 10 -16 6 -3 7 1 4 9 -7 18 -14 21 -14 7z"/>
<path d="M5326 3961 c-12 -13 -14 -21 -6 -26 6 -4 9 -1 8 7 -2 7 2 12 8 11 6
-1 11 5 11 13 0 18 0 18 -21 -5z"/>
<path d="M5370 3976 c0 -2 8 -10 18 -17 15 -13 16 -12 3 4 -13 16 -21 21 -21
13z"/>
<path d="M4123 3958 c-11 -19 -13 -39 -2 -32 5 3 7 9 4 14 -3 5 3 13 12 19 10
6 13 11 6 11 -6 0 -15 -6 -20 -12z"/>
<path d="M3980 3956 c0 -2 11 -6 25 -8 13 -3 22 -1 19 3 -5 9 -44 13 -44 5z"/>
<path d="M5280 3935 c-11 -13 -11 -18 0 -28 10 -9 11 -9 6 1 -4 7 -2 19 4 27
7 8 10 15 7 15 -2 0 -10 -7 -17 -15z"/>
<path d="M3810 3918 c-11 -12 -20 -16 -20 -9 0 7 -5 9 -11 5 -8 -5 -6 -10 5
-16 10 -6 18 -8 19 -6 1 1 11 13 21 26 25 28 13 29 -14 0z"/>
<path d="M3990 3930 c-9 -6 -10 -10 -3 -10 6 0 15 5 18 10 8 12 4 12 -15 0z"/>
<path d="M5185 3930 c-3 -6 1 -7 9 -4 18 7 21 14 7 14 -6 0 -13 -4 -16 -10z"/>
<path d="M3835 3910 c-3 -5 -1 -10 4 -10 6 0 11 5 11 10 0 6 -2 10 -4 10 -3 0
-8 -4 -11 -10z"/>
<path d="M3912 3890 c-18 -29 -15 -38 4 -12 9 13 14 25 12 27 -2 2 -9 -5 -16
-15z"/>
<path d="M5175 3900 c3 -5 8 -10 11 -10 2 0 4 5 4 10 0 6 -5 10 -11 10 -5 0
-7 -4 -4 -10z"/>
<path d="M5215 3891 c-3 -5 -2 -12 3 -15 5 -3 9 1 9 9 0 17 -3 19 -12 6z"/>
<path d="M3735 3880 c-3 -5 -1 -10 4 -10 6 0 11 5 11 10 0 6 -2 10 -4 10 -3 0
-8 -4 -11 -10z"/>
<path d="M3760 3870 c-6 -11 -8 -20 -6 -20 3 0 10 9 16 20 6 11 8 20 6 20 -3
0 -10 -9 -16 -20z"/>
<path d="M3820 3886 c0 -2 7 -6 15 -10 8 -3 15 -1 15 4 0 6 -7 10 -15 10 -8 0
-15 -2 -15 -4z"/>
<path d="M3936 3882 c-3 -5 1 -9 9 -9 8 0 12 4 9 9 -3 4 -7 8 -9 8 -2 0 -6 -4
-9 -8z"/>
<path d="M3869 3854 c6 -12 7 -24 4 -28 -3 -3 -4 -6 -1 -6 3 0 12 8 19 18 7 9
9 14 5 10 -5 -4 -15 0 -23 10 -13 15 -13 15 -4 -4z"/>
<path d="M3970 3860 c0 -5 5 -10 11 -10 5 0 7 5 4 10 -3 6 -8 10 -11 10 -2 0
-4 -4 -4 -10z"/>
<path d="M4015 3860 c-3 -5 -1 -10 4 -10 6 0 11 5 11 10 0 6 -2 10 -4 10 -3 0
-8 -4 -11 -10z"/>
<path d="M3770 3846 c0 -2 7 -7 16 -10 8 -3 12 -2 9 4 -6 10 -25 14 -25 6z"/>
<path d="M3715 3821 c-3 -5 -2 -12 3 -15 5 -3 9 1 9 9 0 17 -3 19 -12 6z"/>
<path d="M3748 3823 c10 -4 9 -10 -5 -26 -12 -15 -13 -18 -2 -9 9 6 19 10 22
7 4 -3 5 -2 2 2 -3 3 -1 11 5 17 6 8 2 12 -13 13 -12 0 -16 -1 -9 -4z"/>
<path d="M3813 3805 c0 -8 4 -12 9 -9 5 3 6 10 3 15 -9 13 -12 11 -12 -6z"/>
<path d="M3716 3738 c3 -4 11 -5 19 -1 21 7 19 12 -4 10 -11 0 -18 -5 -15 -9z"/>
<path d="M3756 3722 c-3 -5 1 -9 9 -9 8 0 12 4 9 9 -3 4 -7 8 -9 8 -2 0 -6 -4
-9 -8z"/>
<path d="M4985 2515 c-22 -19 -46 -34 -52 -35 -7 0 -18 -9 -25 -20 -7 -11 -18
-20 -24 -20 -6 0 -19 -9 -29 -20 -10 -11 -23 -20 -29 -20 -7 0 -18 -9 -26 -20
-8 -11 -18 -20 -23 -20 -6 0 -173 -118 -222 -158 -5 -4 -66 -48 -135 -97 -147
-106 -145 -105 -170 -129 -11 -11 -20 -16 -20 -12 0 4 -17 -6 -39 -23 -21 -17
-74 -56 -117 -87 -44 -31 -80 -60 -82 -65 -2 -5 -10 -9 -17 -9 -7 0 -30 -16
-51 -35 -22 -19 -51 -40 -66 -47 -16 -7 -28 -16 -28 -21 0 -4 -9 -11 -21 -15
-20 -8 -20 -8 4 -34 14 -15 28 -24 31 -21 3 4 6 1 6 -5 0 -7 7 -12 15 -12 8 0
15 -4 15 -10 0 -5 7 -10 15 -10 8 0 15 -7 15 -15 0 -8 3 -14 8 -13 16 3 41
-15 35 -26 -3 -6 -3 -8 2 -4 7 7 106 -58 113 -74 2 -5 10 -8 18 -8 8 0 14 -3
14 -8 0 -4 18 -18 39 -32 22 -13 37 -29 34 -34 -4 -6 -3 -8 2 -4 4 4 29 -8 55
-27 26 -19 51 -35 55 -35 3 0 21 11 39 25 18 14 39 25 46 25 7 0 11 3 7 6 -7
7 89 74 106 74 6 0 7 3 4 7 -4 3 8 16 27 27 50 31 88 58 116 83 14 13 30 23
37 23 7 0 13 3 13 8 0 4 17 18 38 32 20 14 42 28 47 33 6 4 33 24 60 45 28 20
52 40 53 45 2 4 9 7 15 7 7 0 28 14 47 30 19 17 47 36 62 42 15 7 24 16 22 20
-3 4 0 8 7 8 7 0 30 15 53 34 23 18 49 32 58 31 11 -2 15 2 11 11 -4 10 0 12
13 7 14 -5 16 -3 11 10 -6 15 -4 16 16 6 12 -6 19 -8 14 -4 -8 10 21 45 37 45
6 0 4 -5 -4 -10 -13 -8 -12 -10 3 -10 21 0 22 14 1 34 -8 9 -13 16 -9 16 3 0
-2 14 -10 31 -9 17 -14 36 -12 42 2 7 -2 17 -9 22 -7 6 -15 21 -18 35 -5 27
-13 53 -26 85 -16 38 -74 230 -72 238 1 4 -2 7 -8 7 -5 0 -7 7 -4 15 4 8 1 15
-6 15 -6 0 -8 4 -5 10 8 13 -13 50 -28 50 -7 0 -30 -16 -52 -35z"/>
<path d="M5242 2024 c10 -10 20 -16 22 -13 3 3 -5 11 -17 18 -21 13 -21 12 -5
-5z"/>
<path d="M5219 1943 c-1 -4 -1 -16 0 -25 2 -12 -3 -16 -13 -12 -10 4 -16 1
-16 -7 0 -7 3 -9 7 -6 8 9 36 -31 29 -42 -11 -16 5 -40 25 -38 11 1 27 10 37
22 9 11 10 14 2 8 -8 -7 -17 -13 -22 -13 -10 0 3 33 16 42 6 4 4 14 -8 26 -11
13 -14 22 -7 27 6 3 11 12 11 18 0 8 -3 8 -8 2 -8 -12 -22 -13 -39 -2 -7 5
-14 5 -14 0z m36 -15 c5 4 5 2 2 -4 -4 -7 0 -17 8 -24 14 -11 14 -15 -2 -32
-10 -11 -17 -22 -15 -24 6 -11 1 -24 -8 -19 -6 4 -8 15 -5 25 3 10 1 21 -5 25
-6 4 -7 12 0 24 6 12 5 22 -3 31 -10 12 -9 12 4 2 9 -6 20 -8 24 -4z"/>
<path d="M5244 1903 c4 -8 2 -13 -5 -13 -10 0 -10 -3 -1 -12 8 -8 15 -9 22 -2
8 8 6 15 -6 25 -12 9 -15 10 -10 2z"/>
<path d="M5190 1819 c0 -5 5 -7 10 -4 6 3 10 8 10 11 0 2 -4 4 -10 4 -5 0 -10
-5 -10 -11z"/>
<path d="M5286 1815 c-10 -8 -23 -12 -27 -9 -5 3 -9 0 -9 -5 0 -6 5 -11 11
-11 5 0 7 -5 3 -12 -5 -7 -11 -5 -21 7 -7 11 -13 14 -13 8 0 -7 5 -15 10 -18
6 -3 10 -11 10 -17 0 -6 -7 -5 -17 3 -15 12 -16 12 -8 -1 5 -8 10 -21 11 -28
2 -8 6 -17 10 -20 4 -4 4 1 1 10 -4 12 -2 15 9 11 11 -4 12 -8 3 -19 -9 -12
-15 -12 -27 -2 -13 11 -14 11 -8 0 10 -16 -13 -45 -30 -38 -8 3 -13 2 -13 -2
3 -17 -2 -35 -7 -29 -6 5 -15 0 -49 -30 -7 -7 -18 -13 -24 -13 -6 0 -11 -4
-11 -8 0 -4 -12 -15 -27 -24 -16 -9 -38 -25 -50 -35 -44 -37 -215 -158 -220
-155 -3 2 -10 -3 -16 -12 -7 -8 -59 -49 -117 -91 -58 -42 -113 -82 -123 -90
-9 -8 -20 -15 -23 -15 -3 0 -12 -6 -19 -14 -12 -12 -11 -16 9 -29 13 -9 31
-23 40 -32 9 -9 16 -14 16 -11 0 5 20 -9 54 -39 6 -5 35 -26 63 -45 29 -19 53
-38 53 -42 0 -5 7 -8 15 -8 7 0 19 -8 24 -17 6 -10 11 -15 11 -11 0 7 23 -9
54 -38 6 -5 19 -13 29 -17 10 -4 15 -12 12 -17 -4 -6 -3 -10 2 -8 11 2 73 -35
73 -44 0 -18 48 -6 70 17 13 14 29 25 37 25 7 0 13 5 13 10 0 6 5 10 10 10 6
0 20 9 32 20 12 11 40 32 62 47 23 15 54 38 69 50 16 13 33 21 38 17 5 -3 9 1
9 8 0 12 33 39 46 37 3 0 11 7 18 17 8 11 18 14 26 9 8 -5 11 -4 7 2 -6 10 93
83 113 83 5 0 10 5 10 10 0 6 -6 10 -12 10 -9 0 -8 4 2 10 10 6 11 10 3 10 -7
0 -13 8 -13 18 0 9 -7 26 -15 36 -8 10 -12 23 -9 28 3 5 0 15 -6 23 -6 8 -9
19 -5 25 3 5 1 10 -5 10 -6 0 -9 4 -5 9 3 5 1 12 -4 15 -9 6 -25 64 -22 84 1
6 -3 12 -9 12 -5 0 -9 3 -8 8 1 4 -18 66 -41 137 -24 72 -43 136 -44 142 0 8
-12 11 -33 9 -26 -3 -32 -1 -27 11 4 11 8 12 13 3 6 -9 13 -9 26 -1 11 6 13
11 6 11 -7 0 -10 5 -7 10 4 6 3 10 -2 9 -22 -4 -23 3 -2 21 28 22 23 26 -5 5z"/>
<path d="M5196 1767 c3 -10 9 -15 12 -12 3 3 0 11 -7 18 -10 9 -11 8 -5 -6z"/>
<path d="M5195 1709 c-4 -6 -5 -12 -2 -15 2 -3 7 2 10 11 7 17 1 20 -8 4z"/>
<path d="M5514 1096 c1 -8 5 -18 8 -22 4 -3 5 1 4 10 -1 8 -5 18 -8 22 -4 3
-5 -1 -4 -10z"/>
<path d="M5531 908 c-7 -11 -15 -18 -18 -15 -3 3 -18 -7 -33 -23 -15 -16 -31
-26 -34 -23 -3 3 -8 -2 -12 -11 -3 -9 -12 -16 -18 -16 -7 0 -23 -11 -36 -25
-13 -14 -27 -25 -32 -25 -4 0 -16 -6 -25 -14 -68 -56 -116 -86 -126 -80 -7 4
-9 4 -5 -1 4 -4 0 -14 -8 -22 -12 -13 -8 -19 38 -50 29 -19 59 -43 66 -52 7
-9 16 -16 20 -16 4 0 6 -3 4 -8 -1 -4 1 -6 5 -5 14 5 83 -43 77 -53 -3 -5 -1
-8 4 -7 16 5 92 -46 87 -59 -2 -7 2 -10 11 -6 7 3 14 0 14 -7 0 -6 5 -8 10 -5
6 3 10 1 10 -4 0 -6 5 -11 11 -11 16 0 39 -26 31 -35 -4 -5 -1 -5 6 -1 7 4 25
-3 43 -18 17 -14 35 -26 40 -26 6 0 7 -4 4 -10 -3 -5 0 -10 7 -10 17 0 69 -45
63 -54 -3 -3 -2 -4 1 -1 4 2 20 -3 36 -13 23 -13 32 -14 47 -5 15 10 21 10 24
0 3 -7 4 -2 4 10 -1 12 -4 20 -8 17 -4 -2 -9 1 -12 8 -2 7 -3 5 -2 -4 2 -10
-1 -18 -6 -18 -5 0 -9 11 -9 25 0 14 -5 25 -12 25 -6 0 -3 7 8 15 10 8 15 15
9 14 -25 -3 -34 2 -28 18 4 11 3 14 -5 9 -16 -10 -15 6 1 23 7 9 7 11 1 8 -16
-9 -25 18 -11 32 9 9 8 10 -7 5 -16 -6 -18 -4 -13 9 4 10 2 17 -4 17 -6 0 -9
7 -5 15 3 8 1 15 -5 15 -6 0 -8 4 -5 8 3 5 -2 21 -10 36 -7 16 -14 37 -14 47
0 10 -4 21 -10 24 -5 3 -10 16 -10 29 0 12 -4 26 -8 31 -7 8 -37 100 -33 100
1 0 -10 30 -23 68 -14 37 -22 67 -19 67 3 0 0 6 -6 13 -6 8 -12 24 -14 38 -5
30 -39 34 -56 7z"/>
<path d="M5875 240 c3 -5 8 -10 11 -10 2 0 4 5 4 10 0 6 -5 10 -11 10 -5 0 -7
-4 -4 -10z"/>
</g>
</svg>
